# xmcd
#
# Track frame offsets: 
#        150
#        10855
#        21376
#        33314
#        44942
#        59576
#        71623
#        83852
#        95740
#        108334
#        119977
#        132836
#        141281
#        152031
#        163183
#        172261
#        182782
#        196939
#        208682
#        223386
#        234587
#        245772
#        256758
#        268969
#        278816
#        294457
#
# Disc length: 4105 seconds
#
# Revision: 4
# Processed by: cddbd v1.5.2PL0 Copyright (c) Steve Scherf et al.
# Submitted via: ExactAudioCopy v0.95b4
#
DISCID=a810071a
DTITLE=Various Artist - Kent's Cellar Of Soul
DYEAR=2003
DGENRE=Soul
TTITLE0=Rodger Collins - She's Looking Good
TTITLE1=Moses and Joshua Dillard - My Elusive Dreams
TTITLE2=Homer Banks - A Lot Of Love
TTITLE3=The Spellbinders - Chain Reaction
TTITLE4=Bettye Swann - Make Me Yours
TTITLE5=The Intruders - Cowboys To Girls
TTITLE6=Mighty Sam - When She Touches Me (Nothing Else Matters)
TTITLE7=Brooks O'Dell - You Better Make Up Your Mind
TTITLE8=The Packers - Hole In The Wall
TTITLE9=Jerry-O - Karate-Boo-Ga-Loo
TTITLE10=Bob Brady and The Con Chords - Everybody's Going To The Love-In
TTITLE11=Paul Kelly - Chills And Fever
TTITLE12=Tina Britt - The Real Thing
TTITLE13=James and Bobby Purify - Let Love Come Between Us
TTITLE14=The Steelers - Get It From The Bottom
TTITLE15=The Falcons - (I'm A Fool) I Must Love You
TTITLE16=The Dreamlovers featuring Russ Gardner - You Gave Me Somebody
TTITLE16=To Love
TTITLE17=Beau Dollar and The Coins - Soul Serenade
TTITLE18=Little Richard - Get Down With It
TTITLE19=Vernon Garrett - Shine It On
TTITLE20=Danny White - Keep My Woman Home
TTITLE21=Clifford Curry - She Shot A Hole In My Soul
TTITLE22=Lonnie Mack - Save Your Money
TTITLE23=Barbara Lynn - You Left The Water Running
TTITLE24=Erma Franklin - The Right To Cry
TTITLE25=O V Wright with The Keys - That's How Strong My Love Is
EXTD=
EXTT0=
EXTT1=
EXTT2=
EXTT3=
EXTT4=
EXTT5=
EXTT6=
EXTT7=
EXTT8=
EXTT9=
EXTT10=
EXTT11=
EXTT12=
EXTT13=
EXTT14=
EXTT15=
EXTT16=
EXTT17=
EXTT18=
EXTT19=
EXTT20=
EXTT21=
EXTT22=
EXTT23=
EXTT24=
EXTT25=
PLAYORDER=
